<svg id="Layer_1" data-name="Layer 1" xmlns="http://www.w3.org/2000/svg" viewBox="0 0 344.31 60.28"><defs><style>.cls-1{fill:#d1dbdb;}</style></defs><title>gray-logo</title><path class="cls-1" d="M28.79,60.28C10.82,60.28,0,49.18,0,30,0,11.14,10.82,0,28.42,0,42.55,0,53.13,8.36,54.63,20.23H40c-1.45-5.17-5.81-8.32-11.51-8.32-8.39,0-13.36,6.58-13.36,17.93,0,11.54,5.49,18.53,14,18.53,6.7,0,11.39-4,11.79-9.81l0-.89H30.28V27.5H55.23v7.14C55.23,50.55,45.38,60.28,28.79,60.28Zm90-1H103.94V1h25c14.53,0,22.37,7.19,22.37,19.22,0,7.14-3.56,13.69-9.94,16.47L153,59.27H136.4l-10-20.39h-7.68Zm0-30.52h8.77c5.45,0,8.68-3.19,8.68-8.24s-3.44-8.32-8.72-8.32h-8.73Zm116,17.72h-19L212,59.27h-15.1L216.47,1H234.6l19.58,58.26H238.44ZM218.57,35.81h13.29L225.4,13.36h-.33Zm90.86,23.46v-20L289.36,1h15.91l11.59,24.22h.28L328.69,1h15.62L324.25,39.25v20Z"/></svg>